<svg xmlns="http://www.w3.org/2000/svg" xmlns:xlink="http://www.w3.org/1999/xlink" width="536" zoomAndPan="magnify" viewBox="0 0 402 276.749989" height="369" preserveAspectRatio="xMidYMid meet" version="1.0"><defs><g/><clipPath id="4c03274fdd"><path d="M 59.273438 33 L 106 33 L 106 179.835938 L 59.273438 179.835938 Z M 59.273438 33 " clip-rule="nonzero"/></clipPath><clipPath id="67138c6f7c"><path d="M 295.414062 33.460938 L 342.171875 33.460938 L 342.171875 179.636719 L 295.414062 179.636719 Z M 295.414062 33.460938 " clip-rule="nonzero"/></clipPath><clipPath id="d0f888ea47"><rect x="0" width="243" y="0" height="75"/></clipPath></defs><path fill="#4e2a97" d="M 155.730469 81.914062 C 152.261719 81.914062 149.027344 82.570312 146.027344 83.882812 C 143.027344 85.195312 140.425781 86.964844 138.226562 89.191406 C 136.019531 91.417969 134.273438 94.03125 132.988281 97.027344 C 131.699219 100.027344 131.054688 103.214844 131.054688 106.589844 C 131.054688 109.964844 131.699219 113.152344 132.988281 116.152344 C 134.273438 119.148438 136.019531 121.765625 138.226562 123.988281 C 140.425781 126.214844 143.027344 127.984375 146.027344 129.296875 C 149.027344 130.609375 152.261719 131.265625 155.730469 131.265625 C 159.152344 131.265625 162.363281 130.609375 165.363281 129.296875 C 168.359375 127.984375 170.972656 126.203125 173.203125 123.953125 C 175.425781 121.703125 177.183594 119.09375 178.472656 116.117188 C 179.761719 113.140625 180.40625 109.964844 180.40625 106.589844 C 180.40625 103.214844 179.761719 100.039062 178.472656 97.0625 C 177.183594 94.085938 175.425781 91.472656 173.203125 89.222656 C 170.972656 86.976562 168.359375 85.195312 165.363281 83.882812 C 162.363281 82.570312 159.152344 81.914062 155.730469 81.914062 Z M 195.101562 106.589844 C 195.101562 117.558594 191.257812 126.835938 183.570312 134.429688 C 175.789062 142.117188 166.511719 145.960938 155.730469 145.960938 C 144.855469 145.960938 135.574219 142.117188 127.890625 134.429688 C 120.203125 126.742188 116.359375 117.460938 116.359375 106.589844 C 116.359375 95.714844 120.203125 86.4375 127.890625 78.75 C 135.574219 71.0625 144.855469 67.21875 155.730469 67.21875 C 166.511719 67.21875 175.789062 71.0625 183.570312 78.75 C 187.414062 82.59375 190.285156 86.835938 192.183594 91.472656 C 194.082031 96.113281 195.050781 101.152344 195.101562 106.589844 " fill-opacity="1" fill-rule="nonzero"/><path fill="#4e2a97" d="M 245.71875 81.914062 C 242.25 81.914062 239.015625 82.570312 236.015625 83.882812 C 233.015625 85.195312 230.414062 86.964844 228.210938 89.191406 C 226.007812 91.417969 224.261719 94.03125 222.976562 97.027344 C 221.683594 100.027344 221.042969 103.214844 221.042969 106.589844 C 221.042969 109.964844 221.683594 113.152344 222.976562 116.152344 C 224.261719 119.148438 226.007812 121.765625 228.210938 123.988281 C 230.414062 126.214844 233.015625 127.984375 236.015625 129.296875 C 239.015625 130.609375 242.25 131.265625 245.71875 131.265625 C 249.136719 131.265625 252.347656 130.609375 255.351562 129.296875 C 258.347656 127.984375 260.960938 126.203125 263.1875 123.953125 C 265.414062 121.703125 267.171875 119.09375 268.460938 116.117188 C 269.75 113.140625 270.394531 109.964844 270.394531 106.589844 C 270.394531 103.214844 269.75 100.039062 268.460938 97.0625 C 267.171875 94.085938 265.414062 91.472656 263.1875 89.222656 C 260.960938 86.976562 258.347656 85.195312 255.351562 83.882812 C 252.347656 82.570312 249.136719 81.914062 245.71875 81.914062 Z M 285.089844 106.589844 C 285.089844 117.558594 281.242188 126.835938 273.558594 134.429688 C 265.777344 142.117188 256.496094 145.960938 245.71875 145.960938 C 234.84375 145.960938 225.5625 142.117188 217.878906 134.429688 C 210.191406 126.742188 206.347656 117.460938 206.347656 106.589844 C 206.347656 95.714844 210.191406 86.4375 217.878906 78.75 C 225.5625 71.0625 234.84375 67.21875 245.71875 67.21875 C 256.496094 67.21875 265.777344 71.0625 273.558594 78.75 C 277.402344 82.59375 280.273438 86.835938 282.171875 91.472656 C 284.066406 96.113281 285.039062 101.152344 285.089844 106.589844 " fill-opacity="1" fill-rule="nonzero"/><g clip-path="url(#4c03274fdd)"><path fill="#211d1d" d="M 98.644531 33.542969 C 100.753906 33.542969 102.5 34.257812 103.882812 35.6875 C 105.265625 37.117188 105.957031 38.863281 105.957031 40.925781 C 105.957031 43.035156 105.265625 44.78125 103.882812 46.164062 C 102.5 47.546875 100.753906 48.238281 98.644531 48.238281 C 92.832031 48.238281 89.925781 51.144531 89.925781 56.957031 L 89.925781 90.558594 C 89.925781 97.308594 88.378906 102.652344 85.285156 106.589844 C 88.378906 110.527344 89.925781 115.871094 89.925781 122.617188 L 89.925781 156.222656 C 89.925781 162.035156 92.832031 164.941406 98.644531 164.941406 C 100.753906 164.941406 102.5 165.632812 103.882812 167.015625 C 105.265625 168.398438 105.957031 170.144531 105.957031 172.253906 C 105.957031 174.363281 105.265625 176.121094 103.882812 177.527344 C 102.5 178.929688 100.753906 179.636719 98.644531 179.636719 C 83.039062 179.636719 75.234375 171.832031 75.234375 156.222656 L 75.234375 122.617188 C 75.234375 116.808594 72.351562 113.902344 66.585938 113.902344 C 64.476562 113.902344 62.730469 113.210938 61.347656 111.828125 C 59.964844 110.445312 59.273438 108.699219 59.273438 106.589844 C 59.273438 104.480469 59.964844 102.734375 61.347656 101.351562 C 62.730469 99.96875 64.476562 99.277344 66.585938 99.277344 C 72.351562 99.277344 75.234375 96.371094 75.234375 90.558594 L 75.234375 56.957031 C 75.234375 41.347656 83.039062 33.542969 98.644531 33.542969 " fill-opacity="1" fill-rule="nonzero"/></g><g clip-path="url(#67138c6f7c)"><path fill="#211d1d" d="M 326.214844 56.957031 L 326.214844 90.558594 C 326.214844 96.371094 329.097656 99.277344 334.863281 99.277344 C 336.972656 99.277344 338.71875 99.96875 340.097656 101.351562 C 341.484375 102.734375 342.171875 104.480469 342.171875 106.589844 C 342.171875 108.699219 341.484375 110.445312 340.097656 111.828125 C 338.71875 113.210938 336.972656 113.902344 334.863281 113.902344 C 329.097656 113.902344 326.214844 116.808594 326.214844 122.617188 L 326.214844 156.222656 C 326.214844 171.832031 318.414062 179.636719 302.804688 179.636719 C 300.695312 179.636719 298.949219 178.929688 297.566406 177.527344 C 296.183594 176.121094 295.496094 174.363281 295.496094 172.253906 C 295.496094 170.144531 296.183594 168.398438 297.566406 167.015625 C 298.949219 165.632812 300.695312 164.941406 302.804688 164.941406 C 308.617188 164.941406 311.523438 162.035156 311.523438 156.222656 L 311.523438 122.617188 C 311.523438 115.871094 313.070312 110.527344 316.164062 106.589844 C 313.070312 102.652344 311.523438 97.308594 311.523438 90.558594 L 311.523438 56.957031 C 311.523438 51.144531 308.617188 48.238281 302.804688 48.238281 C 300.695312 48.238281 298.949219 47.546875 297.566406 46.164062 C 296.183594 44.78125 295.496094 43.035156 295.496094 40.925781 C 295.496094 38.863281 296.183594 37.117188 297.566406 35.6875 C 298.949219 34.257812 300.695312 33.542969 302.804688 33.542969 C 318.414062 33.542969 326.214844 41.347656 326.214844 56.957031 " fill-opacity="1" fill-rule="nonzero"/></g><path fill="#211d1d" d="M 222.730469 39.375 C 222.730469 40.59375 222.492188 41.726562 222.027344 42.78125 C 221.558594 43.835938 220.9375 44.765625 220.164062 45.558594 C 219.390625 46.355469 218.460938 46.976562 217.386719 47.421875 C 216.304688 47.871094 215.183594 48.089844 214.011719 48.089844 C 211.855469 48.089844 210.003906 47.339844 208.457031 45.839844 C 206.910156 44.34375 205.644531 42.503906 204.660156 40.324219 C 203.675781 38.144531 202.960938 35.894531 202.515625 33.574219 C 202.070312 31.253906 201.847656 29.085938 201.847656 27.070312 C 201.847656 18.773438 205.386719 10.386719 212.464844 1.902344 C 213.730469 0.636719 215.160156 0.00390625 216.753906 0.00390625 C 218.390625 0.00390625 219.800781 0.589844 220.972656 1.761719 C 222.140625 2.933594 222.730469 4.339844 222.730469 5.980469 C 222.730469 6.777344 222.5625 7.597656 222.238281 8.441406 C 220.125 13.597656 219.074219 18.492188 219.074219 23.132812 C 219.074219 27.539062 220.03125 31.804688 221.957031 35.929688 C 222.472656 37.101562 222.730469 38.25 222.730469 39.375 Z M 199.601562 39.375 C 199.601562 40.59375 199.363281 41.726562 198.898438 42.78125 C 198.425781 43.835938 197.804688 44.765625 197.03125 45.558594 C 196.261719 46.355469 195.335938 46.976562 194.257812 47.421875 C 193.179688 47.871094 192.054688 48.089844 190.882812 48.089844 C 188.726562 48.089844 186.875 47.339844 185.328125 45.839844 C 183.78125 44.34375 182.515625 42.503906 181.53125 40.324219 C 180.546875 38.144531 179.832031 35.894531 179.386719 33.574219 C 178.941406 31.253906 178.71875 29.085938 178.71875 27.070312 C 178.71875 18.773438 182.257812 10.386719 189.335938 1.902344 C 190.601562 0.636719 192.03125 0.00390625 193.625 0.00390625 C 195.261719 0.00390625 196.667969 0.589844 197.839844 1.761719 C 199.011719 2.933594 199.601562 4.339844 199.601562 5.980469 C 199.601562 6.777344 199.433594 7.597656 199.109375 8.441406 C 197 13.597656 195.945312 18.492188 195.945312 23.132812 C 195.945312 27.539062 196.902344 31.804688 198.828125 35.929688 C 199.339844 37.101562 199.601562 38.25 199.601562 39.375 " fill-opacity="1" fill-rule="nonzero"/><g transform="matrix(1, 0, 0, 1, 79, 190)"><g clip-path="url(#d0f888ea47)"><g fill="#4e2a97" fill-opacity="1"><g transform="translate(1.703069, 53.291053)"><g><path d="M 26.359375 0.171875 C 24.742188 0.535156 22.882812 0.71875 20.78125 0.71875 C 18.675781 0.71875 16.453125 0.257812 14.109375 -0.65625 C 11.765625 -1.570312 9.722656 -2.863281 7.984375 -4.53125 C 4.234375 -8.113281 2.359375 -12.695312 2.359375 -18.28125 C 2.359375 -23.945312 4.175781 -28.753906 7.8125 -32.703125 C 11.632812 -36.835938 16.515625 -38.90625 22.453125 -38.90625 C 27.847656 -38.90625 32.328125 -37.203125 35.890625 -33.796875 C 39.660156 -30.160156 41.546875 -25.394531 41.546875 -19.5 C 41.546875 -14.769531 40.203125 -10.632812 37.515625 -7.09375 C 36.679688 -5.976562 35.742188 -4.984375 34.703125 -4.109375 C 35.398438 -3.910156 36.234375 -3.59375 37.203125 -3.15625 C 39.296875 -2.175781 41.269531 -1.671875 43.125 -1.640625 L 43.703125 -1.640625 C 44.691406 -1.640625 45.347656 -1.769531 45.671875 -2.03125 L 45.796875 -1.953125 L 43.609375 3.53125 C 43.335938 4.351562 42.832031 4.765625 42.09375 4.765625 C 41 4.765625 39.882812 4.535156 38.75 4.078125 C 37.625 3.617188 36.613281 3.1875 35.71875 2.78125 C 34.832031 2.382812 33.988281 2.03125 33.1875 1.71875 C 32.382812 1.414062 31.617188 1.160156 30.890625 0.953125 C 29.648438 0.609375 28.140625 0.347656 26.359375 0.171875 Z M 10.046875 -18.609375 C 10.046875 -16.828125 10.359375 -15.175781 10.984375 -13.65625 C 11.609375 -12.132812 12.460938 -10.816406 13.546875 -9.703125 C 15.878906 -7.347656 18.804688 -6.171875 22.328125 -6.171875 C 25.703125 -6.171875 28.453125 -7.3125 30.578125 -9.59375 C 32.773438 -11.925781 33.875 -15.015625 33.875 -18.859375 C 33.875 -22.492188 32.84375 -25.53125 30.78125 -27.96875 C 28.539062 -30.570312 25.570312 -31.875 21.875 -31.875 C 18.28125 -31.875 15.375 -30.550781 13.15625 -27.90625 C 11.082031 -25.414062 10.046875 -22.316406 10.046875 -18.609375 Z M 10.046875 -18.609375 "/></g></g></g><g fill="#4e2a97" fill-opacity="1"><g transform="translate(45.769082, 53.291053)"><g><path d="M 26.703125 -38.328125 C 27.890625 -38.234375 28.875 -38.1875 29.65625 -38.1875 L 32.046875 -38.1875 C 32.847656 -38.1875 33.6875 -38.257812 34.5625 -38.40625 L 34.5625 -14.671875 C 34.5625 -9.960938 33.132812 -6.179688 30.28125 -3.328125 C 27.582031 -0.628906 24.195312 0.71875 20.125 0.71875 C 15.664062 0.71875 12.054688 -0.4375 9.296875 -2.75 C 6.210938 -5.351562 4.671875 -9.109375 4.671875 -14.015625 L 4.671875 -38.328125 C 6.265625 -38.234375 7.765625 -38.1875 9.171875 -38.1875 C 10.578125 -38.1875 11.738281 -38.257812 12.65625 -38.40625 L 12.65625 -13.640625 C 12.65625 -11.222656 13.394531 -9.347656 14.875 -8.015625 C 16.25 -6.785156 17.972656 -6.171875 20.046875 -6.171875 C 23.097656 -6.171875 25.132812 -7.738281 26.15625 -10.875 C 26.519531 -12.007812 26.703125 -13.410156 26.703125 -15.078125 Z M 26.703125 -38.328125 "/></g></g></g><g fill="#4e2a97" fill-opacity="1"><g transform="translate(85.040942, 53.291053)"><g><path d="M 7.71875 0.234375 C 6.070312 0.078125 4.148438 0 1.953125 0 L -0.3125 0 L 12.171875 -35 C 12.722656 -36.5625 13 -37.472656 13 -37.734375 C 13 -37.992188 12.992188 -38.15625 12.984375 -38.21875 L 13 -38.265625 C 14.25 -38.210938 15.570312 -38.1875 16.96875 -38.1875 C 18.113281 -38.1875 19.488281 -38.203125 21.09375 -38.234375 L 21.125 -38.1875 C 21.09375 -38.101562 21.078125 -38 21.078125 -37.875 C 21.078125 -37.507812 21.363281 -36.539062 21.9375 -34.96875 L 34.6875 0.09375 C 34.300781 0.0703125 33.847656 0.0625 33.328125 0.0625 C 33.328125 0.0625 32.832031 0.0390625 31.84375 0 C 31.363281 0 30.929688 0 30.546875 0 L 26.09375 0 L 23.390625 -8.265625 L 10.421875 -8.265625 Z M 21.15625 -15.15625 L 16.828125 -28.515625 L 12.609375 -15.15625 Z M 21.15625 -15.15625 "/></g></g></g><g fill="#4e2a97" fill-opacity="1"><g transform="translate(119.40382, 53.291053)"><g><path d="M 5.203125 0 C 5.316406 -0.644531 5.375 -1.351562 5.375 -2.125 L 5.375 -38.1875 L 11.109375 -38.1875 L 26.328125 -14.234375 L 26.328125 -36.234375 C 26.328125 -37.285156 26.234375 -37.9375 26.046875 -38.1875 L 33.796875 -38.1875 C 33.691406 -37.414062 33.640625 -36.570312 33.640625 -35.65625 L 33.640625 0 L 27.671875 0 L 12.6875 -23 L 12.6875 0 Z M 5.203125 0 "/></g></g></g><g fill="#4e2a97" fill-opacity="1"><g transform="translate(158.417311, 53.291053)"><g><path d="M 18.71875 0.171875 C 17.800781 0.0546875 15.4375 0 11.625 0 L 10.703125 0 L 10.703125 -31.75 L 5.03125 -31.75 C 3.34375 -31.75 2.34375 -31.660156 2.03125 -31.484375 C 1.726562 -31.316406 1.492188 -31.164062 1.328125 -31.03125 L 1.234375 -31.0625 L 1.234375 -38.40625 L 1.328125 -38.5 C 1.953125 -38.289062 3.65625 -38.1875 6.4375 -38.1875 L 24.4375 -38.1875 C 26.113281 -38.1875 27.101562 -38.269531 27.40625 -38.4375 C 27.71875 -38.613281 27.960938 -38.769531 28.140625 -38.90625 L 28.21875 -38.875 L 28.21875 -31.515625 L 28.140625 -31.4375 C 27.503906 -31.644531 25.800781 -31.75 23.03125 -31.75 L 18.71875 -31.75 Z M 18.71875 0.171875 "/></g></g></g><g fill="#4e2a97" fill-opacity="1"><g transform="translate(187.871206, 53.291053)"><g><path d="M 5.828125 -38.296875 C 7.742188 -38.222656 8.898438 -38.1875 9.296875 -38.1875 L 11.375 -38.1875 C 12.382812 -38.1875 13.195312 -38.257812 13.8125 -38.40625 L 13.78125 0 L 5.828125 0 Z M 5.828125 -38.296875 "/></g></g></g><g fill="#4e2a97" fill-opacity="1"><g transform="translate(207.507136, 53.291053)"><g><path d="M 22.359375 -35.40625 C 22.765625 -36.238281 22.96875 -36.859375 22.96875 -37.265625 C 22.96875 -37.679688 22.929688 -37.988281 22.859375 -38.1875 L 33.1875 -38.1875 C 32.976562 -37.957031 32.707031 -37.679688 32.375 -37.359375 C 32.050781 -37.046875 31.691406 -36.671875 31.296875 -36.234375 C 30.335938 -35.160156 29.457031 -33.914062 28.65625 -32.5 L 21.734375 -19.859375 L 28.1875 -7.71875 L 28.96875 -6.140625 C 30.425781 -3.117188 31.660156 -1.070312 32.671875 0 L 23.3125 0 C 23.238281 -0.664062 22.910156 -1.566406 22.328125 -2.703125 L 16.703125 -13.5 C 12.742188 -5.476562 10.71875 -1.34375 10.625 -1.09375 C 10.53125 -0.769531 10.453125 -0.40625 10.390625 0 L 1.03125 0 C 1.738281 -0.726562 2.46875 -1.753906 3.21875 -3.078125 L 6.65625 -9.1875 L 12.78125 -19.546875 L 4.734375 -34.6875 C 3.867188 -36.3125 3.113281 -37.476562 2.46875 -38.1875 L 12.109375 -38.1875 C 12.035156 -37.988281 12 -37.773438 12 -37.546875 C 12 -37.035156 12.238281 -36.320312 12.71875 -35.40625 L 17.515625 -25.8125 Z M 22.359375 -35.40625 "/></g></g></g></g></g></svg>